<?xml version="1.0" encoding="UTF-8"?>
<svg width="34px" height="34px" viewBox="0 0 34 34" version="1.1" xmlns="http://www.w3.org/2000/svg" xmlns:xlink="http://www.w3.org/1999/xlink">
    <!-- Generator: Sketch 51.1 (57501) - http://www.bohemiancoding.com/sketch -->
    <title>Group 6</title>
    <desc>Created with Sketch.</desc>
    <defs></defs>
    <g id="Page-1" stroke="none" stroke-width="1" fill="none" fill-rule="evenodd">
        <g id="Desktop" transform="translate(-816.000000, -350.000000)">
            <g id="Group-11" transform="translate(804.000000, 350.000000)">
                <g id="Group-6" transform="translate(12.000000, 0.000000)">
                    <circle id="Oval-4" fill="#FFFFFF" cx="17" cy="17" r="17"></circle>
                    <path d="M25.4714549,24.959193 C25.6482505,23.7546253 26.1344383,23.106012 26.9300184,23.0133529 C28.1233886,22.8743643 29.1841621,23.8472844 29.1841621,24.6812159 C29.1841621,25.5151473 27.0626151,26.0711016 25.7366483,26.0711016 C24.8526703,26.0711016 24.7642726,25.7004654 25.4714549,24.959193 Z" id="Path-17" stroke="#FFD438" fill="#F2F2F2"></path>
                    <path d="M15.7403315,27.0666974 C14.3202889,27.1659305 14.4143646,26.7887203 12.8232044,25.8158002 C11.2320442,24.8428802 10.4364641,25.1208573 9.37569061,24.8428802 C8.66850829,24.6575621 7.38674033,23.6383125 5.53038674,21.7851314 C4.82320442,15.2989978 4.82320442,11.8706128 5.53038674,11.4999766 C6.23756906,11.1293404 9.50828729,9.41514793 15.3425414,6.3573992 C16.4033149,5.80144489 17.5524862,5.89410394 18.7900552,6.63537636 C20.6464088,7.74728499 22.5027624,8.9981822 23.961326,9.27615935 C25.4198895,9.55413651 27.5414365,10.5270566 27.5414365,11.4999766 C27.5414365,12.14859 27.5414365,14.6967139 27.5414365,19.1443484 C27.5414365,19.9782799 27.0994475,20.6732228 26.2154696,21.2291771 C25.3314917,21.7851314 24.5801105,22.3410857 23.961326,22.8970401 L18.7900552,25.3988345 C17.7036012,26.4445877 16.6870266,27.000542 15.7403315,27.0666974 Z" id="Path-12" stroke="#FFD438" fill="#F2F2F2"></path>
                    <path d="M5.03535912,12.1119086 C4.85856354,13.1311582 5.34475138,13.640783 6.49392265,13.640783 C8.21767956,13.640783 8.35027624,14.8916802 9.27845304,14.8916802 C10.2066298,14.8916802 11.5325967,15.4476345 12.4607735,16.5595431 C13.3889503,17.6714518 15.1127072,17.1154975 15.7756906,17.3934746 C16.438674,17.6714518 17.4994475,16.5595431 18.958011,16.5595431 C20.4165746,16.5595431 21.2121547,14.8916802 22.2729282,14.8916802 C23.3337017,14.8916802 24.7922652,15.1696574 25.8530387,13.640783 C26.9138122,12.1119086 27.1790055,12.2683699 27.1790055,11" id="Path-13" stroke="#FFD438"></path>
                    <path d="M16,27.4512233 C16.1666667,25.8118158 16.25,24.3261026 16.25,22.994084 C16.25,21.6620653 16.3333333,19.6640373 16.5,17" id="Path-15" stroke="#FFD438"></path>
                    <path d="M23.3534129,28.0035888 C20.8782748,28.1889069 19.7733024,27.5402936 20.0384958,26.0577487 C20.4362859,23.8339315 22.4366778,23 23.6186063,23 C24.8005348,23 26.4629232,24.9297147 26.4031367,26.0577487 C26.363279,26.8097714 25.3467044,27.4583848 23.3534129,28.0035888 Z" id="Path" stroke="#FFD438" fill="#F2F2F2"></path>
                </g>
            </g>
        </g>
    </g>
</svg>