<?xml version="1.0" encoding="UTF-8"?>
<svg width="34px" height="34px" viewBox="0 0 34 34" version="1.1" xmlns="http://www.w3.org/2000/svg" xmlns:xlink="http://www.w3.org/1999/xlink">
    <!-- Generator: Sketch 51.1 (57501) - http://www.bohemiancoding.com/sketch -->
    <title>Group 15</title>
    <desc>Created with Sketch.</desc>
    <defs></defs>
    <g id="Page-1" stroke="none" stroke-width="1" fill="none" fill-rule="evenodd">
        <g id="Desktop" transform="translate(-816.000000, -426.000000)">
            <g id="Group-11" transform="translate(804.000000, 350.000000)">
                <g id="Group-15" transform="translate(12.000000, 76.000000)">
                    <g id="Group-6" fill="#FFFFFF">
                        <circle id="Oval-4" cx="17" cy="17" r="17"></circle>
                    </g>
                    <g id="network" transform="translate(8.000000, 8.000000)" stroke="#FFD438">
                        <g id="Group">
                            <circle id="Oval-2" fill="#F2F2F2" cx="5" cy="3" r="1"></circle>
                            <circle id="Oval-2" fill="#F2F2F2" cx="1" cy="16" r="1"></circle>
                            <circle id="Oval-2" fill="#F2F2F2" cx="12" cy="6" r="1"></circle>
                            <circle id="Oval-2" fill="#F2F2F2" cx="10" cy="14" r="1"></circle>
                            <circle id="Oval-2" fill="#F2F2F2" cx="15" cy="1" r="1"></circle>
                            <circle id="Oval-2" fill="#F2F2F2" cx="15" cy="11" r="2"></circle>
                            <circle id="Oval-2" fill="#F2F2F2" cx="5.5" cy="9.5" r="2.5"></circle>
                            <path d="M1.5,15.5 L4.5,11.5" id="Path-9"></path>
                            <path d="M6,3 L11.5,5.5" id="Path-11"></path>
                            <path d="M9,13 L7,11" id="Path-12"></path>
                            <path d="M10.5,13.5 L13.5,12.5" id="Path-13"></path>
                            <path d="M13.5,10.5 L8,10" id="Path-15"></path>
                            <path d="M8,8 L11.5,6.5" id="Path-16"></path>
                            <path d="M12.5,6.5 L14,9" id="Path-17"></path>
                            <path d="M15,9 L15,2" id="Path-18"></path>
                        </g>
                        <path d="M5,7 L5,4" id="Path-10"></path>
                    </g>
                </g>
            </g>
        </g>
    </g>
</svg>