<?xml version="1.0" encoding="UTF-8"?>
<svg width="34px" height="34px" viewBox="0 0 34 34" version="1.1" xmlns="http://www.w3.org/2000/svg" xmlns:xlink="http://www.w3.org/1999/xlink">
    <!-- Generator: Sketch 51.1 (57501) - http://www.bohemiancoding.com/sketch -->
    <title>Group 14</title>
    <desc>Created with Sketch.</desc>
    <defs></defs>
    <g id="Page-1" stroke="none" stroke-width="1" fill="none" fill-rule="evenodd">
        <g id="Desktop" transform="translate(-893.000000, -321.000000)">
            <g id="Group-14" transform="translate(893.000000, 321.000000)">
                <g id="Group-6" fill="#FFFFFF">
                    <circle id="Oval-4" cx="17" cy="17" r="17"></circle>
                </g>
                <g id="Group-13" transform="translate(7.000000, 7.000000)">
                    <g id="Group-9" stroke="#FFD438">
                        <path d="M18.25,0 L18.25,20" id="Path-22"></path>
                        <path d="M6,6 L0.5,12.5" id="Path-23"></path>
                        <rect id="Rectangle-4" fill="#F2F2F2" x="5.5" y="1.5" width="9" height="18" rx="2"></rect>
                        <polyline id="Path-24" points="7 3.25 8.5 3.25 9 3.25"></polyline>
                        <path d="M11,3.25 L13,3.25" id="Path-24"></path>
                        <path d="M6,6.25 L14.5,6.25" id="Path-25"></path>
                        <g id="Group-8" transform="translate(13.500000, 12.000000) scale(-1, 1) translate(-13.500000, -12.000000) translate(12.000000, 6.000000)">
                            <polyline id="Path-26" points="1.8 0 3 4 3 8.85714286 0.6 11.7142857"></polyline>
                            <path d="M2.7,5.71428571 L0,5.71428571" id="Path-27"></path>
                        </g>
                    </g>
                    <g id="Group-8" transform="translate(5.000000, 6.000000)"></g>
                    <polyline id="Path-26" stroke="#FFD438" points="6.8 6 8 10 8 14.8571429 5.6 17.7142857"></polyline>
                    <path d="M8,15 L12,15" id="Path-30" stroke="#FFD438"></path>
                    <path d="M8,10 L12,10" id="Path-28" stroke="#FFD438"></path>
                    <path d="M7.7,11.5714286 L5,11.5714286" id="Path-27" stroke="#FFD438"></path>
                </g>
            </g>
        </g>
    </g>
</svg>