<?xml version="1.0" encoding="UTF-8"?>
<svg width="34px" height="34px" viewBox="0 0 34 34" version="1.1" xmlns="http://www.w3.org/2000/svg" xmlns:xlink="http://www.w3.org/1999/xlink">
    <!-- Generator: Sketch 51.1 (57501) - http://www.bohemiancoding.com/sketch -->
    <title>Group 14</title>
    <desc>Created with Sketch.</desc>
    <defs></defs>
    <g id="Page-1" stroke="none" stroke-width="1" fill="none" fill-rule="evenodd">
        <g id="Desktop" transform="translate(-969.000000, -350.000000)">
            <g id="Group-11" transform="translate(804.000000, 350.000000)">
                <g id="Group-14" transform="translate(165.000000, 0.000000)">
                    <g id="Group-6" fill="#FFFFFF">
                        <circle id="Oval-4" cx="17" cy="17" r="17"></circle>
                    </g>
                    <g id="Group-13" transform="translate(9.000000, 7.000000)">
                        <g id="Group-9" stroke="#FFD438">
                            <path d="M0.25,0 L0.25,20" id="Path-22"></path>
                            <path d="M16.25,0 L16.25,20" id="Path-22"></path>
                            <path d="M4,6 L2,7" id="Path-23" stroke-width="2"></path>
                            <path d="M14,6 L12,7" id="Path-23" stroke-width="2" transform="translate(13.000000, 6.500000) scale(-1, 1) translate(-13.000000, -6.500000) "></path>
                            <rect id="Rectangle-4" fill="#F2F2F2" x="3.5" y="1.5" width="9" height="18" rx="2"></rect>
                            <polyline id="Path-24" points="5 3.25 6.5 3.25 7 3.25"></polyline>
                            <path d="M9,3.25 L11,3.25" id="Path-24"></path>
                            <path d="M4,6.25 L12.5,6.25" id="Path-25"></path>
                            <g id="Group-8" transform="translate(11.500000, 12.000000) scale(-1, 1) translate(-11.500000, -12.000000) translate(10.000000, 6.000000)">
                                <polyline id="Path-26" points="1.8 0 3 4 3 8.85714286 0.6 11.7142857"></polyline>
                                <path d="M2.7,5.71428571 L0,5.71428571" id="Path-27"></path>
                            </g>
                        </g>
                        <g id="Group-8" transform="translate(3.000000, 6.000000)"></g>
                        <polyline id="Path-26" stroke="#FFD438" points="4.8 6 6 10 6 14.8571429 3.6 17.7142857"></polyline>
                        <path d="M6,15 L10,15" id="Path-30" stroke="#FFD438"></path>
                        <path d="M6,10 L10,10" id="Path-28" stroke="#FFD438"></path>
                        <path d="M5.7,11.5714286 L3,11.5714286" id="Path-27" stroke="#FFD438"></path>
                    </g>
                </g>
            </g>
        </g>
    </g>
</svg>